<?xml version="1.0" standalone="no"?>
<!DOCTYPE svg PUBLIC "-//W3C//DTD SVG 20010904//EN"
 "http://www.w3.org/TR/2001/REC-SVG-20010904/DTD/svg10.dtd">
<svg version="1.0" xmlns="http://www.w3.org/2000/svg"
 width="512.000000pt" height="512.000000pt" viewBox="0 0 512.000000 512.000000"
 preserveAspectRatio="xMidYMid meet">
<metadata>
Created by potrace 1.14, written by Peter Selinger 2001-2017
</metadata>
<g transform="translate(0.000000,512.000000) scale(0.100000,-0.100000)"
fill="#000000" stroke="none">
<path d="M485 5100 c-182 -49 -333 -170 -413 -331 -78 -157 -73 7 -70 -2241
l3 -2013 23 -65 c22 -60 68 -151 95 -188 7 -9 40 -44 75 -78 67 -68 150 -119
252 -156 l65 -23 943 -3 942 -3 0 160 0 160 -922 3 -923 3 -50 25 c-62 30
-122 91 -155 156 l-25 49 0 2005 0 2005 24 47 c41 85 108 143 197 172 46 15
188 16 1715 14 l1664 -3 50 -25 c62 -30 122 -91 155 -156 l25 -49 3 -983 2
-983 161 160 160 159 -3 844 -3 843 -23 65 c-22 60 -68 151 -95 188 -7 9 -40
44 -75 78 -67 68 -150 119 -252 156 l-65 23 -1705 2 c-1635 1 -1708 1 -1775
-17z"/>
<path d="M960 4000 l0 -160 1280 0 1280 0 0 160 0 160 -1280 0 -1280 0 0 -160z"/>
<path d="M960 3360 l0 -160 1280 0 1280 0 0 160 0 160 -1280 0 -1280 0 0 -160z"/>
<path d="M960 2720 l0 -160 1280 0 1280 0 0 160 0 160 -1280 0 -1280 0 0 -160z"/>
<path d="M4456 2536 c-32 -14 -75 -40 -94 -58 -19 -18 -347 -346 -730 -728
-530 -530 -714 -720 -774 -800 -84 -112 -134 -203 -143 -260 -5 -30 -16 -81
-31 -142 -2 -10 -6 -26 -8 -35 -10 -41 -25 -110 -30 -133 -7 -38 -75 -332 -82
-358 -7 -24 -2 -24 68 -6 9 3 25 7 35 9 10 2 61 13 113 25 52 12 104 23 115
26 11 2 101 22 200 45 174 41 183 44 275 102 255 161 222 131 971 880 392 392
722 728 734 747 48 78 56 207 16 295 -31 69 -305 345 -379 382 -78 38 -178 41
-256 9z m-106 -751 l224 -224 -509 -511 c-465 -465 -556 -551 -651 -610 l-31
-20 -207 206 -206 205 32 47 c28 41 1105 1132 1118 1132 3 0 106 -101 230
-225z"/>
<path d="M960 2080 l0 -160 640 0 640 0 0 160 0 160 -640 0 -640 0 0 -160z"/>
</g>
</svg>
